<?xml version="1.0" encoding="UTF-8" standalone="no"?>
<!DOCTYPE svg PUBLIC "-//W3C//DTD SVG 1.1//EN" "http://www.w3.org/Graphics/SVG/1.1/DTD/svg11.dtd">
<svg width="100%" height="100%" viewBox="0 0 600 600" version="1.1" xmlns="http://www.w3.org/2000/svg" xmlns:xlink="http://www.w3.org/1999/xlink" xml:space="preserve" xmlns:serif="http://www.serif.com/" style="fill-rule:evenodd;clip-rule:evenodd;stroke-linecap:round;stroke-linejoin:round;stroke-miterlimit:1.5;">
    <g transform="matrix(0.943435,0,0,0.941298,-3.01327,13.0743)">
        <circle cx="321.181" cy="304.819" r="265.181" style="fill:rgb(255,168,0);stroke:rgb(227,151,6);stroke-width:5.24px;"/>
    </g>
    <g transform="matrix(0.82638,0,0,0.824508,34.5826,48.6741)">
        <circle cx="321.181" cy="304.819" r="265.181" style="fill:rgb(255,159,0);stroke:rgb(227,151,6);stroke-width:5.99px;"/>
    </g>
    <g transform="matrix(-0.989703,0,0,0.989703,577.623,35.3912)">
        <g transform="matrix(1,0,0,0.794607,0,54.6344)">
            <path d="M133.775,266C123.25,331.597 152.373,410.712 169.895,412C187.416,413.288 195,394 195,394C204.939,339.737 188.503,297.317 133.775,266Z" style="fill:rgb(255,208,184);stroke:black;stroke-width:5.53px;"/>
        </g>
        <path d="M457,229C455.221,270.903 456.077,331.253 456.968,391.853C456.99,393.278 456.736,394.694 456.222,396.023C442.179,432.261 425.107,463.303 402,484C397.793,495.022 392.879,504.986 386,512C359.683,528.25 336.309,529.788 314,526C310.379,525.136 306.298,522.893 300,514C249.558,493.585 195.785,450.822 191,426C186.215,401.178 170,309 170,309C169.34,253.959 171.644,205.339 181,172C210.981,139.612 249.993,120.017 300,116C390.759,117.337 439.67,158.239 457,229Z" style="fill:rgb(255,208,184);stroke:black;stroke-width:4.99px;"/>
        <g transform="matrix(1,0,0,1,-29,26.2509)">
            <path d="M223,60C223.477,48.709 216.482,41.569 197.734,40.958C190.816,50.48 183.387,58.854 175.541,66.289C165.333,75.963 154.418,84.046 143,91C146.862,121.831 157.476,128.186 169.895,128L223,60Z" style="fill:rgb(255,164,212);stroke:black;stroke-width:4.99px;"/>
            <path d="M212,40.958L197.734,7L113,40.958L117,144L129.051,176.979L129.051,147L143,156L137,128.004L153,140L151,116" style="stroke:black;stroke-width:4.99px;"/>
        </g>
        <g transform="matrix(-1,0,0,1,590.023,-1.42109e-14)">
            <path d="M223,60C223.477,48.709 216.482,41.569 197.734,40.958C190.816,50.48 183.387,58.854 175.541,66.289C165.333,75.963 154.418,84.046 143,91C146.862,121.831 157.476,128.186 169.895,128L223,60Z" style="fill:rgb(255,164,212);stroke:black;stroke-width:4.99px;"/>
            <path d="M212,40.958L197.734,7L113,40.958L117,144L129.051,176.979L129.051,147L143,156L137,128.004L153,140L151,116" style="stroke:black;stroke-width:4.99px;"/>
        </g>
        <path d="M214,296C262.36,290.746 299.344,287.368 321,296L332,283C296.356,263.463 258.188,270.678 214,296Z" style="stroke:black;stroke-width:4.99px;"/>
        <g transform="matrix(-0.45402,-0.0573441,-0.125308,0.992118,572.38,19.5484)">
            <path d="M176.852,280C225.212,274.746 299.344,287.368 321,296L332,283C296.356,263.463 221.04,254.678 176.852,280Z" style="stroke:black;stroke-width:6.42px;"/>
        </g>
        <g transform="matrix(1,0,0,1,-2,9.25292)">
            <path d="M412.563,302.389C422.529,306.381 434.17,308.561 441,313L448,314L443,311C443,311 448.385,306.751 448,307C447.615,307.249 439,308 439,308C427.632,300.891 418.449,299.312 411.563,301.389" style="stroke:black;stroke-width:4.99px;"/>
            <g transform="matrix(-1,0,0,1,688.582,10.5973)">
                <path d="M412.563,298.301C422.529,302.292 431.17,310.561 438,315L448,314L443,311C443,311 448.385,306.751 448,307C447.615,307.249 439,308 439,308C427.632,300.891 410.449,294.121 403.563,296.199" style="stroke:black;stroke-width:4.99px;"/>
            </g>
            <g transform="matrix(1,0,0,1,-15,-32.6382)">
                <g transform="matrix(1,0,0,1,-2,3)">
                    <path d="M261,360C284.884,319.355 307.345,319.985 328.447,360L261,360" style="fill:white;stroke:black;stroke-width:4.99px;"/>
                    <g transform="matrix(0.67382,0,0,0.67382,96.133,117.425)">
                        <path d="M261,360C284.884,319.355 307.345,319.985 328.447,360L261,360" style="stroke:black;stroke-width:7.41px;"/>
                    </g>
                </g>
                <g transform="matrix(1,0,0,1,137,-2.25773)">
                    <path d="M261,360C284.884,319.355 307.345,319.985 328.447,360L261,360" style="fill:white;stroke:black;stroke-width:4.99px;"/>
                    <g transform="matrix(0.67382,0,0,0.67382,96.133,117.425)">
                        <path d="M261,360C284.884,319.355 307.345,319.985 328.447,360L261,360" style="stroke:black;stroke-width:7.41px;"/>
                    </g>
                </g>
            </g>
        </g>
        <g>
            <path d="M300,446C317.804,447.126 334.944,447.413 351.241,446.227C365.885,445.161 379.848,442.905 393,439C390.326,451.589 379.563,473.472 358,474C336.437,474.528 304.063,454.056 300,446" style="fill:rgb(255,164,212);stroke:black;stroke-width:4.99px;"/>
            <g transform="matrix(0.892473,0,0,1,39.2581,-2.84217e-14)">
                <path d="M300,452C340.018,461.576 369.934,458.931 393,448" style="fill:rgb(255,164,212);stroke:black;stroke-width:5.27px;"/>
            </g>
        </g>
        <g transform="matrix(1,0,0,1,-6,-21)">
            <path d="M345,167C280.99,254.096 230.542,299.064 175.895,334L138,291C120.793,204.75 144.397,129.212 234,71C271.63,58.212 313.359,59.087 359,73C451.456,115.512 457.161,186.625 460,238.5L457,235C418.917,226.576 381.748,200.796 345,167" style="stroke:black;stroke-width:4.99px;"/>
        </g>
        <g transform="matrix(1,0,0,1,-7,-2)">
            <path d="M388.559,396.805L392.598,406.363L372.441,417L346.844,413.883L350.207,402.324" style="fill:none;stroke:black;stroke-width:4.99px;"/>
        </g>
    </g>
</svg>
