<?xml version="1.0" encoding="UTF-8" standalone="no"?>
<!DOCTYPE svg PUBLIC "-//W3C//DTD SVG 1.1//EN" "http://www.w3.org/Graphics/SVG/1.1/DTD/svg11.dtd">
<svg width="100%" height="100%" viewBox="0 0 449 439" version="1.1" xmlns="http://www.w3.org/2000/svg" xmlns:xlink="http://www.w3.org/1999/xlink" xml:space="preserve" xmlns:serif="http://www.serif.com/" style="fill-rule:evenodd;clip-rule:evenodd;stroke-linecap:round;stroke-linejoin:round;stroke-miterlimit:1.5;">
    <g transform="matrix(1,0,0,1,-1385.09,-166.905)">
        <g transform="matrix(0.896956,0,0,0.875878,190.161,44.9747)">
            <circle cx="1582.5" cy="389.5" r="213.5" style="fill:rgb(242,139,2);fill-opacity:0.17;"/>
        </g>
        <g transform="matrix(1.05152,0,0,1.02681,-54.4411,-13.8144)">
            <circle cx="1582.5" cy="389.5" r="213.5" style="fill:rgb(242,139,2);fill-opacity:0.17;"/>
        </g>
        <g transform="matrix(0.861496,0,0,0.861496,217.846,59.1916)">
            <circle cx="1615.5" cy="379.5" r="180.5" style="fill:rgb(242,139,2);stroke:black;stroke-width:4.95px;"/>
            <path d="M1521.29,533.461C1519.53,532.38 1515.75,527.952 1517.05,529.393C1571.63,589.604 1788.68,364.979 1750.33,263.829C1749.28,261.073 1754.59,266.685 1756.33,268.897C1780.55,299.618 1796,337.384 1796,379.5C1796,479.121 1715.12,560 1615.5,560C1580.99,560 1548.72,550.292 1521.29,533.461Z" style="fill:rgb(242,130,2);"/>
            <circle cx="1615.5" cy="379.5" r="180.5" style="fill:none;stroke:black;stroke-width:4.95px;"/>
            <g>
                <g transform="matrix(0.686941,0,0,0.686941,551.189,62.7477)">
                    <path d="M1620.11,273C1627.05,273 1633.67,274.388 1639.71,276.901C1658.2,284.596 1671.22,302.845 1671.22,324.109C1671.22,352.316 1648.32,375.217 1620.11,375.217C1599.91,375.217 1582.43,363.475 1574.14,346.451C1570.85,339.7 1569,332.118 1569,324.109C1569,295.901 1591.9,273 1620.11,273Z" style="fill:rgb(255,110,0);"/>
                    <path d="M1643,281C1601.59,281.004 1580.87,303.271 1576,346.451C1573.24,337.523 1569.53,329.228 1570.29,321.721C1572.88,296.036 1593.24,274.733 1622.88,275.293C1628.84,275.406 1636.76,277.878 1643,281Z" style="fill:rgb(255,83,0);"/>
                </g>
                <g transform="matrix(0.843471,0,0,0.843471,340.703,149.233)">
                    <path d="M1620.11,273C1627.05,273 1633.67,274.388 1639.71,276.901C1658.2,284.596 1671.22,302.845 1671.22,324.109C1671.22,352.316 1648.32,375.217 1620.11,375.217C1599.91,375.217 1582.43,363.475 1574.14,346.451C1570.85,339.7 1569,332.118 1569,324.109C1569,295.901 1591.9,273 1620.11,273Z" style="fill:rgb(255,110,0);"/>
                    <path d="M1643,281C1601.59,281.004 1580.87,303.271 1576,346.451C1573.24,337.523 1569.53,329.228 1570.29,321.721C1572.88,296.036 1593.24,274.733 1622.88,275.293C1628.84,275.406 1636.76,277.878 1643,281Z" style="fill:rgb(255,83,0);"/>
                </g>
                <g transform="matrix(0.689707,0,0,0.689707,402.958,191.21)">
                    <path d="M1620.11,273C1627.05,273 1633.67,274.388 1639.71,276.901C1658.2,284.596 1671.22,302.845 1671.22,324.109C1671.22,352.316 1648.32,375.217 1620.11,375.217C1599.91,375.217 1582.43,363.475 1574.14,346.451C1570.85,339.7 1569,332.118 1569,324.109C1569,295.901 1591.9,273 1620.11,273Z" style="fill:rgb(255,110,0);"/>
                    <path d="M1643,281C1601.59,281.004 1580.87,303.271 1576,346.451C1573.24,337.523 1569.53,329.228 1570.29,321.721C1572.88,296.036 1593.24,274.733 1622.88,275.293C1628.84,275.406 1636.76,277.878 1643,281Z" style="fill:rgb(255,83,0);"/>
                </g>
                <g transform="matrix(0.454913,0,0,0.454913,783.35,173.059)">
                    <path d="M1620.11,273C1627.05,273 1633.67,274.388 1639.71,276.901C1658.2,284.596 1671.22,302.845 1671.22,324.109C1671.22,352.316 1648.32,375.217 1620.11,375.217C1599.91,375.217 1582.43,363.475 1574.14,346.451C1570.85,339.7 1569,332.118 1569,324.109C1569,295.901 1591.9,273 1620.11,273Z" style="fill:rgb(255,110,0);"/>
                    <path d="M1643,281C1601.59,281.004 1580.87,303.271 1576,346.451C1573.24,337.523 1569.53,329.228 1570.29,321.721C1572.88,296.036 1593.24,274.733 1622.88,275.293C1628.84,275.406 1636.76,277.878 1643,281Z" style="fill:rgb(255,83,0);"/>
                </g>
                <g transform="matrix(0.454913,0,0,0.454913,841.85,114.7)">
                    <path d="M1620.11,273C1627.05,273 1633.67,274.388 1639.71,276.901C1658.2,284.596 1671.22,302.845 1671.22,324.109C1671.22,352.316 1648.32,375.217 1620.11,375.217C1599.91,375.217 1582.43,363.475 1574.14,346.451C1570.85,339.7 1569,332.118 1569,324.109C1569,295.901 1591.9,273 1620.11,273Z" style="fill:rgb(255,110,0);"/>
                    <path d="M1643,281C1601.59,281.004 1580.87,303.271 1576,346.451C1573.24,337.523 1569.53,329.228 1570.29,321.721C1572.88,296.036 1593.24,274.733 1622.88,275.293C1628.84,275.406 1636.76,277.878 1643,281Z" style="fill:rgb(255,83,0);"/>
                </g>
                <g transform="matrix(0.358465,0,0,0.358465,1003.04,244.998)">
                    <path d="M1620.11,273C1627.05,273 1633.67,274.388 1639.71,276.901C1658.2,284.596 1671.22,302.845 1671.22,324.109C1671.22,352.316 1648.32,375.217 1620.11,375.217C1599.91,375.217 1582.43,363.475 1574.14,346.451C1570.85,339.7 1569,332.118 1569,324.109C1569,295.901 1591.9,273 1620.11,273Z" style="fill:rgb(255,110,0);"/>
                    <path d="M1643,281C1601.59,281.004 1580.87,303.271 1576,346.451C1573.24,337.523 1569.53,329.228 1570.29,321.721C1572.88,296.036 1593.24,274.733 1622.88,275.293C1628.84,275.406 1636.76,277.878 1643,281Z" style="fill:rgb(255,83,0);"/>
                </g>
                <g transform="matrix(0.358465,0,0,0.358465,1032.79,315.498)">
                    <path d="M1620.11,273C1627.05,273 1633.67,274.388 1639.71,276.901C1658.2,284.596 1671.22,302.845 1671.22,324.109C1671.22,352.316 1648.32,375.217 1620.11,375.217C1599.91,375.217 1582.43,363.475 1574.14,346.451C1570.85,339.7 1569,332.118 1569,324.109C1569,295.901 1591.9,273 1620.11,273Z" style="fill:rgb(255,110,0);"/>
                    <path d="M1643,281C1601.59,281.004 1580.87,303.271 1576,346.451C1573.24,337.523 1569.53,329.228 1570.29,321.721C1572.88,296.036 1593.24,274.733 1622.88,275.293C1628.84,275.406 1636.76,277.878 1643,281Z" style="fill:rgb(255,83,0);"/>
                </g>
                <g transform="matrix(0.260635,0,0,0.260635,1119.89,401.205)">
                    <path d="M1620.11,273C1627.05,273 1633.67,274.388 1639.71,276.901C1658.2,284.596 1671.22,302.845 1671.22,324.109C1671.22,352.316 1648.32,375.217 1620.11,375.217C1599.91,375.217 1582.43,363.475 1574.14,346.451C1570.85,339.7 1569,332.118 1569,324.109C1569,295.901 1591.9,273 1620.11,273Z" style="fill:rgb(255,110,0);"/>
                    <path d="M1643,281C1601.59,281.004 1580.87,303.271 1576,346.451C1573.24,337.523 1569.53,329.228 1570.29,321.721C1572.88,296.036 1593.24,274.733 1622.88,275.293C1628.84,275.406 1636.76,277.878 1643,281Z" style="fill:rgb(255,83,0);"/>
                </g>
                <g transform="matrix(0.260635,0,0,0.260635,1193.24,414.526)">
                    <path d="M1620.11,273C1627.05,273 1633.67,274.388 1639.71,276.901C1658.2,284.596 1671.22,302.845 1671.22,324.109C1671.22,352.316 1648.32,375.217 1620.11,375.217C1599.91,375.217 1582.43,363.475 1574.14,346.451C1570.85,339.7 1569,332.118 1569,324.109C1569,295.901 1591.9,273 1620.11,273Z" style="fill:rgb(255,110,0);"/>
                    <path d="M1643,281C1601.59,281.004 1580.87,303.271 1576,346.451C1573.24,337.523 1569.53,329.228 1570.29,321.721C1572.88,296.036 1593.24,274.733 1622.88,275.293C1628.84,275.406 1636.76,277.878 1643,281Z" style="fill:rgb(255,83,0);"/>
                </g>
                <g transform="matrix(0.260635,0,0,0.260635,1264.24,421.526)">
                    <path d="M1620.11,273C1627.05,273 1633.67,274.388 1639.71,276.901C1658.2,284.596 1671.22,302.845 1671.22,324.109C1671.22,352.316 1648.32,375.217 1620.11,375.217C1599.91,375.217 1582.43,363.475 1574.14,346.451C1570.85,339.7 1569,332.118 1569,324.109C1569,295.901 1591.9,273 1620.11,273Z" style="fill:rgb(255,110,0);"/>
                    <path d="M1643,281C1601.59,281.004 1580.87,303.271 1576,346.451C1573.24,337.523 1569.53,329.228 1570.29,321.721C1572.88,296.036 1593.24,274.733 1622.88,275.293C1628.84,275.406 1636.76,277.878 1643,281Z" style="fill:rgb(255,83,0);"/>
                </g>
                <g transform="matrix(0.260635,0,0,0.260635,1299.24,258.385)">
                    <path d="M1620.11,273C1627.05,273 1633.67,274.388 1639.71,276.901C1658.2,284.596 1671.22,302.845 1671.22,324.109C1671.22,352.316 1648.32,375.217 1620.11,375.217C1599.91,375.217 1582.43,363.475 1574.14,346.451C1570.85,339.7 1569,332.118 1569,324.109C1569,295.901 1591.9,273 1620.11,273Z" style="fill:rgb(255,110,0);"/>
                    <path d="M1643,281C1601.59,281.004 1580.87,303.271 1576,346.451C1573.24,337.523 1569.53,329.228 1570.29,321.721C1572.88,296.036 1593.24,274.733 1622.88,275.293C1628.84,275.406 1636.76,277.878 1643,281Z" style="fill:rgb(255,83,0);"/>
                </g>
                <g transform="matrix(0.358465,0,0,0.358465,1069.43,244.998)">
                    <path d="M1620.11,273C1627.05,273 1633.67,274.388 1639.71,276.901C1658.2,284.596 1671.22,302.845 1671.22,324.109C1671.22,352.316 1648.32,375.217 1620.11,375.217C1599.91,375.217 1582.43,363.475 1574.14,346.451C1570.85,339.7 1569,332.118 1569,324.109C1569,295.901 1591.9,273 1620.11,273Z" style="fill:rgb(255,110,0);"/>
                    <path d="M1643,281C1601.59,281.004 1580.87,303.271 1576,346.451C1573.24,337.523 1569.53,329.228 1570.29,321.721C1572.88,296.036 1593.24,274.733 1622.88,275.293C1628.84,275.406 1636.76,277.878 1643,281Z" style="fill:rgb(255,83,0);"/>
                </g>
            </g>
        </g>
    </g>
</svg>
