<?xml version="1.0" encoding="UTF-8" standalone="no"?>
<!DOCTYPE svg PUBLIC "-//W3C//DTD SVG 1.1//EN" "http://www.w3.org/Graphics/SVG/1.1/DTD/svg11.dtd">
<svg width="100%" height="100%" viewBox="0 0 434 673" version="1.1" xmlns="http://www.w3.org/2000/svg" xmlns:xlink="http://www.w3.org/1999/xlink" xml:space="preserve" xmlns:serif="http://www.serif.com/" style="fill-rule:evenodd;clip-rule:evenodd;stroke-linecap:round;stroke-linejoin:round;stroke-miterlimit:1.5;">
    <g transform="matrix(1,0,0,1,-1239.74,-229.168)">
        <g>
            <path d="M1363,823L1278.87,900L1621,900L1553,832L1363,823Z" style="fill:rgb(242,139,2);stroke:black;stroke-width:4.26px;"/>
            <path d="M1534,525C1533.55,589.094 1542.69,632.291 1569,638L1467.07,679L1397.33,610C1414.66,627.298 1433.24,595.002 1453,515L1534,525Z" style="fill:rgb(255,208,184);stroke:black;stroke-width:4.26px;"/>
            <path d="M1433.38,578.688C1377.47,582.081 1336.28,587.444 1312,603C1274.19,634.054 1261.89,655.543 1263,672L1338,677C1347.9,735.902 1358.93,795.935 1349,835C1393.03,880.173 1461.32,879.263 1554,832C1551.76,821.424 1557.91,810.009 1580,797L1668,718C1674.92,691 1671.54,664 1649.27,637C1628.3,613.072 1594.06,593.682 1539,584.362C1492.06,609.037 1461.63,619.422 1433.38,578.688Z" style="fill:rgb(232,149,193);stroke:black;stroke-width:4.26px;"/>
            <path d="M1603,779C1578.83,810.365 1550.68,832.299 1516.54,840C1436.47,799.778 1385.76,763.749 1358,731L1299,662C1296.41,656.971 1296.38,652.762 1304,651L1298,644C1295.76,639.948 1297.31,637.012 1302,635L1307,637C1305.71,632.69 1306.57,629.453 1311,628L1336,642C1333.51,637.087 1334.33,633.832 1340,633L1348,636L1364,679C1400.57,688.637 1444.02,702.645 1494.29,721L1532,701L1603,779Z" style="fill:rgb(255,208,184);stroke:black;stroke-width:4.26px;"/>
            <path d="M1304,651L1315.5,658" style="fill:none;stroke:black;stroke-width:4.26px;"/>
            <path d="M1309,666C1261.15,666.747 1241.2,685.63 1242,718C1240.31,757.827 1255.36,774.236 1278,780C1367.03,767.505 1449.4,732.093 1536,705L1494.29,679L1309,666Z" style="fill:rgb(255,208,184);stroke:black;stroke-width:4.26px;"/>
            <path d="M1307,637L1324,648" style="fill:none;stroke:black;stroke-width:4.26px;"/>
            <path d="M1344,634L1353,623" style="fill:none;stroke:black;stroke-width:4.26px;"/>
            <path d="M1533,699L1557,674" style="fill:none;stroke:black;stroke-width:4.26px;"/>
            <path d="M1553,677L1551,666" style="fill:none;stroke:black;stroke-width:4.26px;"/>
        </g>
        <g transform="matrix(-0.675452,0,0,0.675452,1706.01,226.91)">
            <g transform="matrix(1,0,0,0.794607,0,54.6344)">
                <path d="M133.775,266C123.25,331.597 152.373,410.712 169.895,412C187.416,413.288 195,394 195,394C204.939,339.737 188.503,297.317 133.775,266Z" style="fill:rgb(255,208,184);stroke:black;stroke-width:8.1px;"/>
            </g>
            <path d="M457,229C455.231,270.671 456.067,330.585 456.954,390.846C456.985,392.945 456.61,395.03 455.849,396.987C441.876,432.81 424.902,463.486 402,484C397.793,495.022 392.879,504.986 386,512C359.683,528.25 336.309,529.788 314,526C310.379,525.136 306.298,522.893 300,514C249.558,493.585 195.785,450.822 191,426C186.215,401.178 170,309 170,309C169.34,253.959 171.644,205.339 181,172C210.981,139.612 249.993,120.017 300,116C390.759,117.337 439.67,158.239 457,229Z" style="fill:rgb(255,208,184);stroke:black;stroke-width:7.31px;"/>
            <g transform="matrix(1,0,0,1,-29,26.2509)">
                <path d="M223,60C223.477,48.709 216.482,41.569 197.734,40.958C190.816,50.48 183.387,58.854 175.541,66.289C165.333,75.963 154.418,84.046 143,91C146.862,121.831 157.476,128.186 169.895,128L223,60Z" style="fill:rgb(255,164,212);stroke:black;stroke-width:7.31px;"/>
                <path d="M212,40.958L197.734,7L113,40.958L117,144L129.051,176.979L129.051,147L143,156L137,128.004L153,140L151,116" style="stroke:black;stroke-width:7.31px;"/>
            </g>
            <g transform="matrix(-1,0,0,1,590.023,-1.42109e-14)">
                <path d="M223,60C223.477,48.709 216.482,41.569 197.734,40.958C190.816,50.48 183.387,58.854 175.541,66.289C165.333,75.963 154.418,84.046 143,91C146.862,121.831 157.476,128.186 169.895,128L223,60Z" style="fill:rgb(255,164,212);stroke:black;stroke-width:7.31px;"/>
                <path d="M212,40.958L197.734,7L113,40.958L117,144L129.051,176.979L129.051,147L143,156L137,128.004L153,140L151,116" style="stroke:black;stroke-width:7.31px;"/>
            </g>
            <path d="M214,296C262.36,290.746 299.344,287.368 321,296L332,283C296.356,263.463 258.188,270.678 214,296Z" style="stroke:black;stroke-width:7.31px;"/>
            <g transform="matrix(-0.45402,-0.0573441,-0.125308,0.992118,572.38,19.5484)">
                <path d="M176.852,280C225.212,274.746 299.344,287.368 321,296L332,283C296.356,263.463 221.04,254.678 176.852,280Z" style="stroke:black;stroke-width:9.41px;"/>
            </g>
            <g transform="matrix(1,0,0,1,-2,9.25292)">
                <path d="M412.563,302.389C422.529,306.381 434.17,308.561 441,313L448,314L443,311C443,311 448.385,306.751 448,307C447.615,307.249 439,308 439,308C427.632,300.891 418.449,299.312 411.563,301.389" style="stroke:black;stroke-width:7.31px;"/>
                <g transform="matrix(-1,0,0,1,688.582,10.5973)">
                    <path d="M412.563,298.301C422.529,302.292 431.17,310.561 438,315L448,314L443,311C443,311 448.385,306.751 448,307C447.615,307.249 439,308 439,308C427.632,300.891 410.449,294.121 403.563,296.199" style="stroke:black;stroke-width:7.31px;"/>
                </g>
                <g transform="matrix(1,0,0,1,-15,-32.6382)">
                    <g transform="matrix(1,0,0,1,-2,3)">
                        <path d="M261,360C284.884,319.355 307.345,319.985 328.447,360L261,360" style="fill:white;stroke:black;stroke-width:7.31px;"/>
                        <g transform="matrix(0.67382,0,0,0.67382,96.133,117.425)">
                            <path d="M261,360C284.884,319.355 307.345,319.985 328.447,360L261,360" style="stroke:black;stroke-width:10.86px;"/>
                        </g>
                    </g>
                    <g transform="matrix(1,0,0,1,137,-2.25773)">
                        <path d="M261,360C284.884,319.355 307.345,319.985 328.447,360L261,360" style="fill:white;stroke:black;stroke-width:7.31px;"/>
                        <g transform="matrix(0.67382,0,0,0.67382,96.133,117.425)">
                            <path d="M261,360C284.884,319.355 307.345,319.985 328.447,360L261,360" style="stroke:black;stroke-width:10.86px;"/>
                        </g>
                    </g>
                </g>
            </g>
            <g>
                <path d="M300,446C317.804,447.126 334.944,447.413 351.241,446.227C365.885,445.161 379.848,442.905 393,439C390.326,451.589 379.563,473.472 358,474C336.437,474.528 304.063,454.056 300,446" style="fill:rgb(255,164,212);stroke:black;stroke-width:7.31px;"/>
                <g transform="matrix(0.892473,0,0,1,39.2581,-2.84217e-14)">
                    <path d="M300,452C340.018,461.576 369.934,458.931 393,448" style="fill:rgb(255,164,212);stroke:black;stroke-width:7.72px;"/>
                </g>
            </g>
            <g transform="matrix(1,0,0,1,-6,-21)">
                <path d="M345,167C280.99,254.096 230.542,299.064 175.895,334L138,291C120.793,204.75 144.397,129.212 234,71C271.63,58.212 313.359,59.087 359,73C451.456,115.512 457.161,186.625 460,238.5L457,235C418.917,226.576 381.748,200.796 345,167" style="stroke:black;stroke-width:7.31px;"/>
            </g>
            <g transform="matrix(1,0,0,1,-7,-2)">
                <path d="M388.559,396.805L392.598,406.363L372.441,417L346.844,413.883L350.207,402.324" style="fill:none;stroke:black;stroke-width:7.31px;"/>
            </g>
        </g>
    </g>
</svg>
